<svg width="98" height="96" xmlns="http://www.w3.org/2000/svg"><path fill="#fff" d="M49 0C22.1 0 0 22.1 0 49s22.1 49 49 49 49-22.1 49-49S75.9 0 49 0zm23.6 74.2c-.3.5-1 .7-1.5.4l-8.2-4.7c-.5-.3-.7-1-.4-1.5l2.6-4.5c.3-.5 1-.7 1.5-.4l8.2 4.7c.5.3.7 1 .4 1.5l-2.6 4.5zM36.9 64c-2 .3-4 .5-6 .5s-4-.2-6-.5c-.6-.1-1-.7-.9-1.3l2-8c.1-.6.7-1 1.3-.9s1 .7.9 1.3l-2 8c0 .2 0 .3.2.3s.3 0 .3-.2l8-20c0-.2 0-.3-.2-.3s-.3 0-.3.2l-2 8c0 .6-.5 1-1 .9s-1-.5-.9-1l2-8c0-.6.5-1 1-1h20c.6 0 1 .5 1 1v20c0 .6-.5 1-1 1s-1-.5-1-1V36H36v20c0 .6-.5 1-1 1s-1-.5-1-1V36c0-.6.5-1 1-1h20c.6 0 1 .5 1 1v20c0 .6-.5 1-1 1s-1-.5-1-1V36H36v28c0 .6-.4 1-.9 1z"/></svg>